<?xml version="1.0" standalone="no"?>
<!DOCTYPE svg PUBLIC "-//W3C//DTD SVG 20010904//EN"
 "http://www.w3.org/TR/2001/REC-SVG-20010904/DTD/svg10.dtd">
<svg version="1.0" xmlns="http://www.w3.org/2000/svg"
 width="512.000000pt" height="512.000000pt" viewBox="0 0 512.000000 512.000000"
 preserveAspectRatio="xMidYMid meet">

<g transform="translate(0.000000,512.000000) scale(0.100000,-0.100000)"
fill="#000000" stroke="none">
<path d="M4714 5096 c-61 -29 -63 -30 -202 -276 -151 -267 -142 -240 -98 -292
45 -52 109 -182 127 -258 7 -30 13 -96 13 -147 0 -50 1 -91 2 -90 17 19 445
793 454 821 14 45 7 102 -19 154 -24 47 -45 66 -101 91 -59 27 -114 26 -176
-3z"/>
<path d="M3820 4603 c-142 -27 -296 -159 -351 -301 -27 -71 -36 -203 -19 -281
81 -363 531 -501 800 -245 90 86 130 163 150 290 37 229 -125 469 -355 529
-55 14 -169 18 -225 8z"/>
<path d="M2965 3814 c-22 -8 -665 -407 -1430 -887 -1344 -843 -1391 -874
-1413 -917 -30 -58 -26 -125 10 -172 14 -18 204 -227 421 -465 342 -372 402
-433 441 -448 53 -20 98 -15 147 18 30 20 2249 2738 2249 2755 0 8 -150 95
-202 117 -47 19 -169 19 -223 -1z"/>
<path d="M2398 2232 c-636 -781 -1143 -1398 -1164 -1411 -76 -52 -179 -73
-254 -51 l-35 10 -180 -186 c-99 -103 -190 -204 -203 -225 -98 -162 46 -385
238 -367 97 10 107 18 659 587 l524 539 247 381 c135 209 249 384 253 387 6 6
147 -72 147 -82 0 -9 110 -699 115 -721 4 -18 -42 -61 -307 -281 -360 -298
-364 -303 -390 -360 -61 -136 15 -296 159 -338 74 -22 148 -9 214 38 25 18
212 171 416 341 392 326 414 348 428 443 4 25 -13 157 -49 379 l-55 340 115
194 c63 106 113 195 111 197 -2 2 -59 8 -128 13 -139 10 -179 23 -240 78 -65
59 -93 123 -94 214 0 73 4 85 104 337 58 144 107 260 109 257 2 -2 -13 -125
-33 -273 -22 -160 -35 -284 -31 -304 11 -60 59 -123 112 -149 47 -22 65 -24
409 -36 198 -8 410 -12 472 -11 106 3 113 5 155 33 67 48 89 95 86 181 -4 93
-36 145 -111 179 -49 23 -71 25 -357 36 -168 6 -307 13 -309 15 -2 2 9 98 25
213 15 116 30 209 31 207 2 -1 7 -65 11 -140 6 -102 12 -140 23 -147 8 -5 52
-9 99 -9 l85 0 77 133 c104 178 112 198 111 282 0 81 -21 144 -65 198 -16 21
-26 42 -22 47 5 4 41 28 79 54 l70 47 -75 -7 c-134 -11 -293 27 -398 97 -24
16 -46 29 -50 29 -4 -1 -514 -625 -1134 -1388z"/>
</g>
</svg>
