<svg width="345" height="333" viewBox="0 0 345 333" fill="none" xmlns="http://www.w3.org/2000/svg">
<rect width="345" height="333" fill="#1E1E1E"/>
<rect width="345" height="333" fill="#D9D9D9"/>
<rect x="24" y="220" width="226" height="29" rx="5" fill="#BEBEBE"/>
<rect x="24" y="260" width="289" height="55" rx="5" fill="#BEBEBE"/>
<g clip-path="url(#clip0_0_1)">
<g opacity="0.05">
<path d="M221.155 99.332L142.221 88.1434C138.512 87.6218 135.073 90.1171 134.546 93.8379L132.699 107.318H123.83C120.087 107.318 117 110.54 117 114.282V165.192C117 168.934 120.087 171.926 123.83 171.926H213.78C217.522 171.926 220.609 168.934 220.609 165.192V152.352C220.609 152.23 220.65 152.108 220.667 151.98L226.933 107.005C227.458 103.299 224.86 99.8571 221.155 99.332ZM214.7 165.139C214.7 165.623 214.307 166.016 213.822 166.016H123.787C123.302 166.016 122.909 165.624 122.909 165.139V114.104C122.909 113.62 123.302 113.227 123.787 113.227H213.822C214.307 113.227 214.7 113.619 214.7 114.104V165.139Z" fill="black" stroke="black" stroke-width="2.86509"/>
<path d="M185.242 136.815C184.088 135.662 182.218 135.662 181.064 136.815L174.475 143.404L162.216 131.146C161.061 129.992 159.191 129.992 158.037 131.146L135.025 154.158C133.871 155.313 133.871 157.183 135.025 158.337C135.602 158.914 136.358 159.202 137.114 159.202C137.87 159.202 138.627 158.914 139.204 158.337L160.127 137.414L170.296 147.583L163.721 154.158C162.567 155.312 162.567 157.183 163.721 158.337C164.875 159.49 166.746 159.49 167.9 158.337L183.153 143.083L198.407 158.337C198.984 158.913 199.741 159.202 200.497 159.202C201.253 159.202 202.009 158.913 202.586 158.337C203.74 157.182 203.74 155.312 202.586 154.158L185.242 136.815Z" fill="black" stroke="black" stroke-width="2.86509"/>
<path d="M194.113 136.747C198.656 136.747 202.351 133.051 202.351 128.509C202.351 123.967 198.656 120.272 194.113 120.272C189.571 120.272 185.876 123.967 185.876 128.509C185.876 133.051 189.571 136.747 194.113 136.747Z" fill="black" stroke="black" stroke-width="2.86509"/>
</g>
</g>
<defs>
<clipPath id="clip0_0_1">
<rect width="110" height="110" fill="white" transform="translate(117 75)"/>
</clipPath>
</defs>
</svg>
