<svg width="345" height="333" viewBox="0 0 345 333" fill="none" xmlns="http://www.w3.org/2000/svg">
<rect width="345" height="333" fill="white"/>
<rect x="24" y="220" width="226" height="29" rx="5" fill="#BEBEBE"/>
<rect x="24" y="260" width="289" height="55" rx="5" fill="#BEBEBE"/>
<g clip-path="url(#clip0_9_97)">
<path d="M93 75H254V192H93V75Z" fill="#D9D9D9"/>
<g opacity="0.05">
<path d="M206.855 107.983L150.884 100.049C148.254 99.679 145.815 101.448 145.442 104.087L144.132 113.645H137.843C135.189 113.645 133 115.93 133 118.584V154.683C133 157.337 135.189 159.458 137.843 159.458H201.626C204.279 159.458 206.468 157.337 206.468 154.683V145.578C206.468 145.492 206.497 145.405 206.509 145.315L210.952 113.423C211.325 110.796 209.483 108.355 206.855 107.983ZM202.278 154.645C202.278 154.989 201.999 155.268 201.656 155.268H137.813C137.469 155.268 137.19 154.989 137.19 154.645V118.457C137.19 118.114 137.469 117.835 137.813 117.835H201.656C201.999 117.835 202.278 118.114 202.278 118.457V154.645Z" fill="black" stroke="black" stroke-width="2.86509"/>
<path d="M181.39 134.561C180.572 133.744 179.245 133.744 178.427 134.561L173.755 139.234L165.062 130.541C164.244 129.723 162.917 129.723 162.099 130.541L145.781 146.859C144.963 147.678 144.963 149.004 145.781 149.822C146.19 150.231 146.727 150.436 147.263 150.436C147.799 150.436 148.335 150.231 148.745 149.822L163.581 134.986L170.792 142.197L166.129 146.859C165.311 147.678 165.311 149.004 166.129 149.822C166.948 150.64 168.274 150.64 169.092 149.822L179.909 139.006L190.725 149.822C191.134 150.231 191.671 150.436 192.207 150.436C192.743 150.436 193.279 150.231 193.688 149.822C194.507 149.004 194.507 147.677 193.688 146.859L181.39 134.561Z" fill="black" stroke="black" stroke-width="2.86509"/>
<path d="M187.68 134.513C190.901 134.513 193.521 131.892 193.521 128.671C193.521 125.451 190.901 122.831 187.68 122.831C184.46 122.831 181.839 125.451 181.839 128.671C181.839 131.892 184.46 134.513 187.68 134.513Z" fill="black" stroke="black" stroke-width="2.86509"/>
</g>
</g>
<defs>
<clipPath id="clip0_9_97">
<rect width="110" height="110" fill="white" transform="translate(117 75)"/>
</clipPath>
</defs>
</svg>
