<svg width="345" height="333" viewBox="0 0 345 333" fill="none" xmlns="http://www.w3.org/2000/svg">
<rect width="345" height="333" fill="#F5F5F5"/>
<rect width="345" height="151.617" fill="#D9D9D9"/>
<rect x="23" y="174" width="170" height="30" rx="5" fill="#BEBEBE"/>
<rect x="23" y="215" width="297" height="95" rx="5" fill="#BEBEBE"/>
<g opacity="0.05">
<path d="M220.102 43.1671L140.45 30.7087C136.707 30.1279 133.237 32.9064 132.705 37.0495L130.841 52.0592H121.892C118.115 52.0592 115 55.6474 115 59.8143V116.502C115 120.668 118.115 124 121.892 124H212.66C216.436 124 219.551 120.668 219.551 116.502V102.204C219.551 102.069 219.592 101.932 219.61 101.79L225.932 51.7105C226.462 47.5849 223.84 43.7518 220.102 43.1671ZM213.588 116.442C213.588 116.982 213.191 117.42 212.702 117.42H121.849C121.36 117.42 120.963 116.982 120.963 116.442V59.616C120.963 59.0765 121.359 58.6387 121.849 58.6387H212.702C213.191 58.6387 213.588 59.076 213.588 59.616V116.442Z" fill="black" stroke="black" stroke-width="2.86509"/>
<path d="M183.863 84.9044C182.698 83.62 180.811 83.62 179.646 84.9044L172.997 92.2414L160.627 78.5916C159.462 77.3072 157.574 77.3072 156.41 78.5916L133.189 104.216C132.024 105.501 132.024 107.584 133.189 108.869C133.771 109.511 134.534 109.832 135.297 109.832C136.06 109.832 136.823 109.511 137.406 108.869L158.519 85.5707L168.78 96.8943L162.146 104.216C160.981 105.501 160.981 107.584 162.146 108.868C163.31 110.153 165.198 110.153 166.362 108.868L181.755 91.883L197.147 108.868C197.729 109.511 198.493 109.832 199.256 109.832C200.018 109.832 200.782 109.511 201.364 108.868C202.528 107.583 202.528 105.5 201.364 104.216L183.863 84.9044Z" fill="black" stroke="black" stroke-width="2.86509"/>
<path d="M192.814 84.828C197.398 84.828 201.127 80.713 201.127 75.6552C201.127 70.5979 197.398 66.4832 192.814 66.4832C188.231 66.4832 184.502 70.5979 184.502 75.6552C184.502 80.713 188.231 84.828 192.814 84.828Z" fill="black" stroke="black" stroke-width="2.86509"/>
</g>
</svg>
