<svg width="345" height="333" viewBox="0 0 345 333" fill="none" xmlns="http://www.w3.org/2000/svg">
<rect width="345" height="333" fill="#F5F5F5"/>
<rect x="103.403" y="237.287" width="169.118" height="31.9042" rx="5" fill="#BEBEBE"/>
<rect x="103.403" y="281.156" width="230" height="37.8862" rx="5" fill="#BEBEBE"/>
<rect x="13.5294" y="237.287" width="79.2437" height="81.7545" rx="5" fill="#D9D9D9"/>
<rect x="103.403" y="14.9551" width="169.118" height="30.9072" rx="5" fill="#BEBEBE"/>
<rect x="103.403" y="57.8263" width="230" height="38.8832" rx="5" fill="#BEBEBE"/>
<rect x="13.5294" y="14.9551" width="79.2437" height="81.7545" rx="5" fill="#D9D9D9"/>
<rect x="103.403" y="126.62" width="169.118" height="30.9072" rx="5" fill="#BEBEBE"/>
<rect x="103.403" y="169.491" width="230" height="37.8862" rx="5" fill="#BEBEBE"/>
<rect x="13.5294" y="126.62" width="79.2437" height="80.7575" rx="5" fill="#D9D9D9"/>
<g opacity="0.05">
<path d="M79.0104 37.1312L36.7092 30.9452C34.7215 30.6569 32.8786 32.0365 32.5962 34.0937L31.6062 41.5464H26.8535C24.8478 41.5464 23.1933 43.3281 23.1933 45.3971V73.5441C23.1933 75.6131 24.8478 77.2674 26.8535 77.2674H75.0583C77.0637 77.2674 78.7178 75.6131 78.7178 73.5441V66.4451C78.7178 66.378 78.7396 66.31 78.7491 66.2395L82.1067 41.3733C82.3881 39.3248 80.996 37.4216 79.0104 37.1312ZM75.551 73.5147C75.551 73.7826 75.3405 74 75.0809 74H26.8305C26.5708 74 26.3601 73.7828 26.3601 73.5147V45.2986C26.3601 45.0307 26.5706 44.8134 26.8305 44.8134H75.0809C75.3405 44.8134 75.551 45.0305 75.551 45.2986V73.5147Z" fill="black" stroke="black" stroke-width="2.86509"/>
<path d="M59.7647 57.8551C59.1461 57.2174 58.1437 57.2174 57.5253 57.8551L53.9941 61.4982L47.4245 54.7206C46.8059 54.0829 45.8035 54.0829 45.1852 54.7206L32.8528 67.4439C32.2344 68.0821 32.2344 69.1163 32.8528 69.7543C33.1621 70.0731 33.5675 70.2326 33.9726 70.2326C34.3777 70.2326 34.7831 70.0731 35.0924 69.7543L46.3049 58.186L51.7548 63.8085L48.2312 67.4437C47.6128 68.0819 47.6128 69.1161 48.2312 69.754C48.8498 70.3918 49.8522 70.3918 50.4706 69.754L58.6451 61.3202L66.8197 69.754C67.129 70.0729 67.5343 70.2323 67.9395 70.2323C68.3446 70.2323 68.7499 70.0729 69.0592 69.754C69.6776 69.1159 69.6776 68.0817 69.0592 67.4437L59.7647 57.8551Z" fill="black" stroke="black" stroke-width="2.86509"/>
<path d="M64.5187 57.8172C66.9529 57.8172 68.9332 55.774 68.9332 53.2626C68.9332 50.7515 66.9529 48.7085 64.5187 48.7085C62.0845 48.7085 60.1042 50.7515 60.1042 53.2626C60.1042 55.774 62.0845 57.8172 64.5187 57.8172Z" fill="black" stroke="black" stroke-width="2.86509"/>
</g>
<g opacity="0.05">
<path d="M79.0104 264.449L36.7092 258.263C34.7215 257.974 32.8786 259.354 32.5962 261.411L31.6062 268.864H26.8535C24.8478 268.864 23.1933 270.645 23.1933 272.714V300.861C23.1933 302.93 24.8478 304.585 26.8535 304.585H75.0583C77.0637 304.585 78.7178 302.93 78.7178 300.861V293.762C78.7178 293.695 78.7396 293.627 78.7491 293.557L82.1067 268.691C82.3881 266.642 80.996 264.739 79.0104 264.449ZM75.551 300.832C75.551 301.1 75.3405 301.317 75.0809 301.317H26.8305C26.5708 301.317 26.3601 301.1 26.3601 300.832V272.616C26.3601 272.348 26.5706 272.131 26.8305 272.131H75.0809C75.3405 272.131 75.551 272.348 75.551 272.616V300.832Z" fill="black" stroke="black" stroke-width="2.86509"/>
<path d="M59.7647 285.172C59.1461 284.535 58.1437 284.535 57.5253 285.172L53.9941 288.816L47.4245 282.038C46.8059 281.4 45.8035 281.4 45.1852 282.038L32.8528 294.761C32.2344 295.399 32.2344 296.434 32.8528 297.072C33.1621 297.39 33.5675 297.55 33.9726 297.55C34.3777 297.55 34.7831 297.39 35.0924 297.072L46.3049 285.503L51.7548 291.126L48.2312 294.761C47.6128 295.399 47.6128 296.433 48.2312 297.071C48.8498 297.709 49.8522 297.709 50.4706 297.071L58.6451 288.638L66.8197 297.071C67.129 297.39 67.5343 297.55 67.9395 297.55C68.3446 297.55 68.7499 297.39 69.0592 297.071C69.6776 296.433 69.6776 295.399 69.0592 294.761L59.7647 285.172Z" fill="black" stroke="black" stroke-width="2.86509"/>
<path d="M64.5187 285.135C66.9529 285.135 68.9332 283.091 68.9332 280.58C68.9332 278.069 66.9529 276.026 64.5187 276.026C62.0845 276.026 60.1042 278.069 60.1042 280.58C60.1042 283.091 62.0845 285.135 64.5187 285.135Z" fill="black" stroke="black" stroke-width="2.86509"/>
</g>
<g opacity="0.05">
<path d="M79.0104 152.784L36.7092 146.598C34.7215 146.31 32.8786 147.689 32.5962 149.746L31.6062 157.199H26.8535C24.8478 157.199 23.1933 158.981 23.1933 161.05V189.197C23.1933 191.266 24.8478 192.92 26.8535 192.92H75.0583C77.0637 192.92 78.7178 191.266 78.7178 189.197V182.098C78.7178 182.031 78.7396 181.963 78.7491 181.892L82.1067 157.026C82.3881 154.977 80.996 153.074 79.0104 152.784ZM75.551 189.167C75.551 189.435 75.3405 189.653 75.0809 189.653H26.8305C26.5708 189.653 26.3601 189.436 26.3601 189.167V160.951C26.3601 160.683 26.5706 160.466 26.8305 160.466H75.0809C75.3405 160.466 75.551 160.683 75.551 160.951V189.167Z" fill="black" stroke="black" stroke-width="2.86509"/>
<path d="M59.7647 173.508C59.1461 172.87 58.1437 172.87 57.5253 173.508L53.9941 177.151L47.4245 170.373C46.8059 169.736 45.8035 169.736 45.1852 170.373L32.8528 183.097C32.2344 183.735 32.2344 184.769 32.8528 185.407C33.1621 185.726 33.5675 185.885 33.9726 185.885C34.3777 185.885 34.7831 185.726 35.0924 185.407L46.3049 173.839L51.7548 179.461L48.2312 183.096C47.6128 183.735 47.6128 184.769 48.2312 185.407C48.8498 186.044 49.8522 186.044 50.4706 185.407L58.6451 176.973L66.8197 185.407C67.129 185.726 67.5343 185.885 67.9395 185.885C68.3446 185.885 68.7499 185.726 69.0592 185.407C69.6776 184.769 69.6776 183.734 69.0592 183.096L59.7647 173.508Z" fill="black" stroke="black" stroke-width="2.86509"/>
<path d="M64.5187 173.47C66.9529 173.47 68.9332 171.427 68.9332 168.915C68.9332 166.404 66.9529 164.361 64.5187 164.361C62.0845 164.361 60.1042 166.404 60.1042 168.915C60.1042 171.427 62.0845 173.47 64.5187 173.47Z" fill="black" stroke="black" stroke-width="2.86509"/>
</g>
<line x1="345" y1="112.165" y2="112.165" stroke="#DADADA"/>
<line x1="345" y1="222.832" y2="222.832" stroke="#DADADA"/>
</svg>
