<svg width="357" height="332" viewBox="0 0 357 332" fill="none" xmlns="http://www.w3.org/2000/svg">
<rect width="357" height="332" fill="#F5F5F5"/>
<rect x="58" y="15" width="286" height="32" rx="5" fill="#BEBEBE"/>
<rect x="14" y="15" width="32" height="32" rx="5" fill="#BEBEBE"/>
<rect x="58" y="62" width="32" height="32" rx="5" fill="#BEBEBE"/>
<rect x="58" y="105" width="32" height="32" rx="5" fill="#BEBEBE"/>
<rect x="58" y="150" width="32" height="32" rx="5" fill="#BEBEBE"/>
<rect x="58" y="195" width="32" height="32" rx="5" fill="#BEBEBE"/>
<rect x="58" y="239" width="32" height="33" rx="5" fill="#BEBEBE"/>
<rect x="58" y="284" width="32" height="32" rx="5" fill="#BEBEBE"/>
<path d="M102 67C102 64.2386 104.239 62 107 62H340C342.761 62 345 64.2386 345 67V89C345 91.7614 342.761 94 340 94H107C104.239 94 102 91.7614 102 89V67Z" fill="#BEBEBE"/>
<path d="M102 110C102 107.239 104.239 105 107 105H340C342.761 105 345 107.239 345 110V132C345 134.761 342.761 137 340 137H107C104.239 137 102 134.761 102 132V110Z" fill="#BEBEBE"/>
<path d="M102 155C102 152.239 104.239 150 107 150H340C342.761 150 345 152.239 345 155V177C345 179.761 342.761 182 340 182H107C104.239 182 102 179.761 102 177V155Z" fill="#BEBEBE"/>
<path d="M102 200C102 197.239 104.239 195 107 195H340C342.761 195 345 197.239 345 200V222C345 224.761 342.761 227 340 227H107C104.239 227 102 224.761 102 222V200Z" fill="#BEBEBE"/>
<path d="M102 244C102 241.239 104.239 239 107 239H340C342.761 239 345 241.239 345 244V267C345 269.761 342.761 272 340 272H107C104.239 272 102 269.761 102 267V244Z" fill="#BEBEBE"/>
<path d="M102 289C102 286.239 104.239 284 107 284H340C342.761 284 345 286.239 345 289V311C345 313.761 342.761 316 340 316H107C104.239 316 102 313.761 102 311V289Z" fill="#BEBEBE"/>
</svg>
