<svg width="345" height="333" viewBox="0 0 345 333" fill="none" xmlns="http://www.w3.org/2000/svg">
<rect width="345" height="333" fill="#F5F5F5"/>
<rect x="14" y="14.9551" width="319" height="31.9042" rx="5" fill="#BEBEBE"/>
<path d="M14 64.8204C14 62.0589 16.2386 59.8204 19 59.8204H328C330.761 59.8204 333 62.0589 333 64.8204V86.7245C333 89.486 330.761 91.7246 328 91.7246H19C16.2386 91.7246 14 89.486 14 86.7246V64.8204Z" fill="#BEBEBE"/>
<rect x="14" y="195.413" width="319" height="32.9012" rx="5" fill="#BEBEBE"/>
<path d="M14 246.275C14 243.514 16.2386 241.275 19 241.275H328C330.761 241.275 333 243.514 333 246.275V268.18C333 270.941 330.761 273.18 328 273.18H19C16.2386 273.18 14 270.941 14 268.18V246.275Z" fill="#BEBEBE"/>
<path d="M14 291.141C14 288.379 16.2386 286.141 19 286.141H328C330.761 286.141 333 288.379 333 291.141V313.045C333 315.806 330.761 318.045 328 318.045H19C16.2386 318.045 14 315.806 14 313.045V291.141Z" fill="#BEBEBE"/>
<rect x="14" y="104.686" width="319" height="32.9012" rx="5" fill="#BEBEBE"/>
<path d="M14 155.548C14 152.786 16.2386 150.548 19 150.548H328C330.761 150.548 333 152.786 333 155.548V177.452C333 180.214 330.761 182.452 328 182.452H19C16.2386 182.452 14 180.214 14 177.452V155.548Z" fill="#BEBEBE"/>
</svg>
