<svg width="782" height="333" viewBox="0 0 782 333" fill="none" xmlns="http://www.w3.org/2000/svg">
<rect width="782" height="333" fill="white"/>
<rect x="396" y="39" width="226" height="29" rx="5" fill="#BEBEBE"/>
<rect x="396" y="79" width="289" height="55" rx="5" fill="#BEBEBE"/>
<path d="M0 0H360V333H0V0Z" fill="#D9D9D9"/>
<g opacity="0.05">
<path d="M253.41 112.723L137.906 94.1145C132.478 93.247 127.446 97.397 126.675 103.585L123.972 126.004H110.994C105.518 126.004 101 131.364 101 137.587V222.257C101 228.48 105.518 233.457 110.994 233.457H242.619C248.095 233.457 252.611 228.48 252.611 222.257V200.902C252.611 200.7 252.671 200.496 252.697 200.283L261.865 125.483C262.633 119.321 258.832 113.596 253.41 112.723ZM243.964 222.168C243.964 222.974 243.39 223.628 242.681 223.628H110.931C110.222 223.628 109.647 222.975 109.647 222.168V137.291C109.647 136.485 110.222 135.831 110.931 135.831H242.681C243.39 135.831 243.964 136.485 243.964 137.291V222.168Z" fill="black" stroke="black" stroke-width="2.86509"/>
<path d="M200.859 175.062C199.17 173.144 196.433 173.144 194.745 175.062L185.103 186.021L167.164 165.634C165.475 163.715 162.738 163.715 161.05 165.634L127.376 203.907C125.687 205.826 125.687 208.937 127.376 210.856C128.22 211.816 129.327 212.295 130.433 212.295C131.54 212.295 132.646 211.816 133.491 210.856L164.107 176.058L178.988 192.971L169.367 203.906C167.678 205.826 167.678 208.937 169.367 210.856C171.056 212.774 173.793 212.774 175.482 210.856L197.802 185.486L220.123 210.856C220.968 211.815 222.075 212.294 223.181 212.294C224.287 212.294 225.394 211.815 226.239 210.856C227.927 208.936 227.927 205.825 226.239 203.906L200.859 175.062Z" fill="black" stroke="black" stroke-width="2.86509"/>
<path d="M213.84 174.948C220.487 174.948 225.894 168.802 225.894 161.248C225.894 153.694 220.487 147.548 213.84 147.548C207.194 147.548 201.786 153.694 201.786 161.248C201.786 168.802 207.194 174.948 213.84 174.948Z" fill="black" stroke="black" stroke-width="2.86509"/>
</g>
</svg>
