<svg width="345" height="333" viewBox="0 0 345 333" fill="none" xmlns="http://www.w3.org/2000/svg">
<rect x="26" width="294" height="333" fill="#F5F5F5"/>
<rect width="345" height="155.349" fill="#D9D9D9"/>
<rect x="46" y="174.185" width="144" height="29.7138" rx="5" fill="#BEBEBE"/>
<rect x="46" y="215.169" width="253" height="95.2892" rx="5" fill="#BEBEBE"/>
<g opacity="0.05">
<path d="M220.102 44.2297L140.45 31.4646C136.707 30.8695 133.237 33.7164 132.705 37.9615L130.841 53.3407H121.892C118.115 53.3407 115 57.0172 115 61.2866V119.369C115 123.639 118.115 127.052 121.892 127.052H212.66C216.436 127.052 219.551 123.639 219.551 119.369V104.72C219.551 104.582 219.592 104.441 219.61 104.296L225.932 52.9833C226.462 48.7562 223.84 44.8288 220.102 44.2297ZM213.588 119.309C213.588 119.861 213.191 120.31 212.702 120.31H121.849C121.36 120.31 120.963 119.862 120.963 119.309V61.0835C120.963 60.5306 121.359 60.0821 121.849 60.0821H212.702C213.191 60.0821 213.588 60.5302 213.588 61.0835V119.309Z" fill="black" stroke="black" stroke-width="2.86509"/>
<path d="M183.863 86.9943C182.698 85.6783 180.811 85.6783 179.646 86.9943L172.997 94.512L160.627 80.5262C159.462 79.2101 157.574 79.2101 156.41 80.5262L133.189 106.781C132.024 108.098 132.024 110.232 133.189 111.549C133.771 112.207 134.534 112.536 135.297 112.536C136.06 112.536 136.823 112.207 137.406 111.549L158.519 87.677L168.78 99.2794L162.146 106.781C160.981 108.098 160.981 110.232 162.146 111.548C163.31 112.864 165.198 112.864 166.362 111.548L181.755 94.1448L197.147 111.548C197.73 112.206 198.493 112.535 199.256 112.535C200.018 112.535 200.782 112.206 201.364 111.548C202.528 110.231 202.528 108.097 201.364 106.781L183.863 86.9943Z" fill="black" stroke="black" stroke-width="2.86509"/>
<path d="M192.814 86.9161C197.398 86.9161 201.127 82.6997 201.127 77.5175C201.127 72.3357 197.398 68.1198 192.814 68.1198C188.231 68.1198 184.502 72.3357 184.502 77.5175C184.502 82.6997 188.231 86.9161 192.814 86.9161Z" fill="black" stroke="black" stroke-width="2.86509"/>
</g>
</svg>
